Coordinates
version=1
nRows=4
nColumns=63
inDegrees=yes

Units are S.I. units (second, meters, Newtons, ...)
If the header above contains a line with 'inDegrees', this indicates whether rotational values are in degrees (yes) or radians (no).

endheader
time	pelvis_tilt	pelvis_list	pelvis_rotation	pelvis_tx	pelvis_ty	pelvis_tz	hip_flexion_r	hip_adduction_r	hip_rotation_r	knee_angle_r	knee_angle_r_beta	ankle_angle_r	subtalar_angle_r	mtp_angle_r	hip_flexion_l	hip_adduction_l	hip_rotation_l	knee_angle_l	knee_angle_l_beta	ankle_angle_l	subtalar_angle_l	mtp_angle_l	L5_S1_Flex_Ext	L5_S1_Lat_Bending	L5_S1_axial_rotation	L4_L5_Flex_Ext	L4_L5_Lat_Bending	L4_L5_axial_rotation	L3_L4_Flex_Ext	L3_L4_Lat_Bending	L3_L4_axial_rotation	L2_L3_Flex_Ext	L2_L3_Lat_Bending	L2_L3_axial_rotation	L1_L2_Flex_Ext	L1_L2_Lat_Bending	L1_L2_axial_rotation	L1_T12_Flex_Ext	L1_T12_Lat_Bending	L1_T12_axial_rotation	Abs_r3	Abs_r2	Abs_r1	Abs_t1	Abs_t2	neck_flexion	neck_bending	neck_rotation	arm_flex_r	arm_add_r	arm_rot_r	elbow_flex_r	pro_sup_r	wrist_flex_r	wrist_dev_r	arm_flex_l	arm_add_l	arm_rot_l	elbow_flex_l	pro_sup_l	wrist_flex_l	wrist_dev_l
      4.00000000	     -0.52653862	      1.99876848	     72.79675234	      0.23739432	      0.43413855	      0.93672576	     -6.72136676	      1.25171234	    -10.86002495	      5.80035264	      0.10123525	     17.50813997	     11.32032657	      0.00000000	     -6.09680220	     -1.88662006	    -15.65875466	      9.45842105	      0.16508059	     20.70627811	     10.22804155	      0.00000000	     -0.32110157	      0.50570398	      3.53539770	     -0.59631773	      0.67258629	      3.75636006	     -0.52753777	      1.22956865	      3.75636006	     -0.36698699	      1.22956865	      3.09347299	     -0.29817492	      1.03123155	      2.87251064	     -0.18347744	      0.78333546	      2.65154828	     -2.29359642	      5.72062455	     19.66282141	      0.00000000	      0.00000000	     -0.19467009	      1.13186204	    -14.93051373	     -0.89397163	    -15.57087355	    -22.52383600	     93.23322040	     77.94728555	     -3.24861357	     10.55044343	     46.50179806	     14.51791178	    158.74244308	      0.12146454	      0.74450469	    -69.35836445	    -23.35264911
      4.02000000	     -0.60861053	      1.89228501	     72.82022246	      0.23690946	      0.43421017	      0.93725865	     -6.47658954	      1.20587474	    -10.88629933	      5.84563289	      0.10202554	     17.36638370	     11.19547655	      0.00000000	     -5.86246165	     -1.84674273	    -15.89837251	      9.58730809	      0.16733009	     20.79397779	     10.47632569	      0.00000000	     -0.31484061	      0.49869199	      3.47678493	     -0.58469049	      0.66326035	      3.69408399	     -0.51725163	      1.21251970	      3.69408399	     -0.35983133	      1.21251970	      3.04218682	     -0.29236099	      1.01693271	      2.82488776	     -0.17989992	      0.77247389	      2.60758870	     -2.24887497	      5.64130353	     19.33683477	      0.00000000	      0.00000000	     -0.14317537	      1.25326631	    -14.66248844	      0.00152346	    -15.73867976	    -22.18711805	     93.34650680	     76.82713025	     -3.17311544	     11.48180597	     46.70347760	     14.43517879	    159.89045503	      0.12309134	      0.74902529	    -69.34800881	    -23.35379328
      4.04000000	     -0.67363358	      1.77836054	     72.69016790	      0.23661820	      0.43415074	      0.93764645	     -6.24931723	      1.14697477	    -10.77560625	      5.83934217	      0.10191575	     17.19537511	     11.18477146	      0.00000000	     -5.66756631	     -1.78587358	    -16.08476850	      9.66388454	      0.16866660	     20.83167292	     10.44669169	      0.00000000	     -0.30396775	      0.48643554	      3.42913499	     -0.56449850	      0.64695927	      3.64345592	     -0.49938861	      1.18271937	      3.64345592	     -0.34740474	      1.18271937	      3.00049311	     -0.28226445	      0.99193935	      2.78617218	     -0.17368717	      0.75348865	      2.57185124	     -2.17121121	      5.50265610	     19.07182005	      0.00000000	      0.00000000	     -0.07115681	      1.42652786	    -14.81365418	      0.90784126	    -16.04856808	    -21.54404277	     93.27165246	     76.66550211	     -3.05431681	     11.67327420	     46.82957728	     14.34535871	    160.20999529	      0.12668399	      0.77390377	    -69.31713030	    -23.43031281
      4.06000000	     -0.74873462	      1.75206179	     72.62038259	      0.23630351	      0.43410623	      0.93809798	     -6.08896596	      1.05355451	    -10.60946030	      5.87929444	      0.10261305	     17.10883677	     11.00711341	      0.00000000	     -5.50314809	     -1.72364057	    -16.27810823	      9.86759674	      0.17222205	     20.86555580	     10.48348912	      0.00000000	     -0.30241232	      0.47026346	      3.36918759	     -0.56160992	      0.62545040	      3.57976182	     -0.49683320	      1.14339858	      3.57976182	     -0.34562704	      1.14339858	      2.94803914	     -0.28082008	      0.95896125	      2.73746492	     -0.17279840	      0.72843810	      2.52689069	     -2.16010096	      5.31971432	     18.73841063	      0.00000000	      0.00000000	     -0.23014619	      1.72478659	    -14.82950183	      1.77330725	    -16.38872238	    -20.80397975	     93.16924098	     76.39184833	     -2.91209440	     11.71888683	     46.93281823	     14.21673425	    160.52029534	      0.13012113	      0.76878421	    -69.29938268	    -23.34041108
